<!DOCTYPE svg PUBLIC "-//W3C//DTD SVG 20010904//EN" "http://www.w3.org/TR/2001/REC-SVG-20010904/DTD/svg10.dtd">
<svg version="1.0" xmlns="http://www.w3.org/2000/svg" width="505px" height="254px" viewBox="0 0 5050 2540" preserveAspectRatio="xMidYMid meet">
<g id="layer1" fill="#ffb56a" stroke="none">
 <path d="M3569 1827 c-183 -62 -325 -213 -374 -397 -8 -31 -15 -99 -15 -155 0 -174 48 -293 165 -410 117 -117 235 -165 407 -165 169 0 286 48 404 165 115 114 164 235 164 409 0 176 -47 293 -165 411 -120 120 -233 165 -415 165 -82 0 -119 -5 -171 -23z m316 -209 c108 -56 194 -176 212 -298 25 -165 -64 -341 -212 -417 -72 -38 -179 -43 -258 -13 -80 30 -167 112 -209 198 -31 62 -33 73 -33 172 0 99 2 110 33 172 49 99 136 178 232 209 14 5 61 7 105 5 62 -2 91 -8 130 -28z"/>
 <path d="M710 1821 c-179 -57 -322 -193 -376 -357 -27 -83 -27 -285 0 -368 55 -168 214 -314 392 -361 75 -19 233 -19 308 0 194 51 363 220 405 405 16 70 13 238 -5 301 -50 171 -184 310 -358 371 -71 24 -95 28 -196 27 -82 0 -131 -5 -170 -18z m310 -202 c77 -36 141 -97 181 -171 32 -60 34 -68 34 -163 0 -90 -3 -105 -28 -154 -38 -72 -109 -141 -182 -177 -54 -26 -70 -29 -155 -29 -84 0 -102 3 -153 28 -297 146 -285 545 20 673 81 34 203 31 283 -7z"/>
 </g>
<g id="layer2" fill="#ff7f27" stroke="none">
 <path d="M2124 1885 c-34 -7 -96 -29 -139 -49 -233 -108 -389 -302 -442 -549 -23 -111 -13 -318 20 -422 86 -262 305 -462 571 -520 109 -24 313 -17 406 15 341 116 540 395 540 755 0 244 -83 436 -257 595 -82 74 -236 154 -338 175 -86 18 -279 18 -361 0z m311 -275 c159 -55 278 -178 330 -343 108 -340 -133 -697 -471 -697 -136 0 -246 51 -351 164 -104 111 -149 237 -140 396 11 227 151 415 357 481 77 25 201 25 275 -1z"/>
 </g>

</svg>